<svg xmlns="http://www.w3.org/2000/svg" width="56" height="39.118" viewBox="0 0 56 39.118">
    <path id="Trazado_100" data-name="Trazado 100" d="M8.519-5.533,10-2.524C7.849-1.468,4.246.8,4.246,4.118c0,5.788,10.6,10.153,24.648,10.153.875,0,1.7-.071,2.559-.1-.8-.918-1.839-2.1-3.257-3.672h0l2.492-2.245c5.3,5.885,5.877,6.724,5.939,7.374l.007.117c0,.039,0,.078,0,.119v.06h0l-.007.176c-.062.649-.635,1.487-5.939,7.376h0L28.2,21.226c1.436-1.594,2.487-2.785,3.285-3.707-.866.032-1.7.105-2.587.105-16.486,0-28-5.554-28-13.506C.893.309,3.6-3.118,8.519-5.533Zm40.636.03C54.291-3.147,56.893.09,56.893,4.118c0,5.5-5.382,9.919-14.764,12.11h0l-.763-3.264C48.875,11.211,53.54,7.821,53.54,4.118c0-2.637-1.891-4.788-5.783-6.573h0ZM31.132-13.569v.194L28.093-8.923l.019.039a3.839,3.839,0,0,1,1.452-.252A4.142,4.142,0,0,1,32.6-7.808a4.142,4.142,0,0,1,1.091,3.125,4.557,4.557,0,0,1-1.494,3.411A4.557,4.557,0,0,1,28.654-.115a4.54,4.54,0,0,1-3.572-1.135,4.539,4.539,0,0,1-1.5-3.434,5.784,5.784,0,0,1,.93-3.2l3.64-5.691Zm-14.044-.29c3.254,0,4.9,1.394,4.9,3.736a2.973,2.973,0,0,1-1.975,2.845v.039a3.334,3.334,0,0,1,2.324,3.292c0,2.322-1.821,3.832-5.248,3.832A8.222,8.222,0,0,1,12.83-1.1l.716-2.13a7.2,7.2,0,0,0,3.542.813c1.4,0,2.44-.62,2.44-1.723,0-1.2-.638-1.781-2.44-1.781H14.843V-8.168h2.245c1.531,0,2.092-.716,2.092-1.723s-.638-1.665-2.092-1.665a8.879,8.879,0,0,0-3.175.659l-.774-2.092A9.921,9.921,0,0,1,17.088-13.859Zm23.136,0c3.64,0,5.073,2.652,5.073,6.872S43.864-.115,40.224-.115s-5.111-2.651-5.111-6.873S36.584-13.859,40.224-13.859ZM27-6.309a1.983,1.983,0,0,0-.609,1.626,2.069,2.069,0,0,0,.6,1.67,2.069,2.069,0,0,0,1.67.6,2.048,2.048,0,0,0,1.651-.6,2.048,2.048,0,0,0,.575-1.661A1.962,1.962,0,0,0,30.292-6.3a1.962,1.962,0,0,0-1.637-.531A1.983,1.983,0,0,0,27-6.309Zm13.226-5.247c-1.723,0-2.3,1.491-2.3,4.568s.582,4.57,2.3,4.57c1.7,0,2.265-1.491,2.265-4.57S41.928-11.556,40.224-11.556Zm11.947-3.239a3.107,3.107,0,0,1,.966,2.394,3.141,3.141,0,0,1-.955,2.421,3.141,3.141,0,0,1-2.453.87,3.157,3.157,0,0,1-2.46-.868A3.157,3.157,0,0,1,46.3-12.4a3.134,3.134,0,0,1,.982-2.392,3.134,3.134,0,0,1,2.445-.84A3.107,3.107,0,0,1,52.171-14.795Zm-2.2.9-.245,0a1.444,1.444,0,0,0-1.12.392,1.444,1.444,0,0,0-.449,1.1,1.42,1.42,0,0,0,.432,1.121,1.42,1.42,0,0,0,1.137.389,1.4,1.4,0,0,0,1.133-.387,1.4,1.4,0,0,0,.416-1.123,1.419,1.419,0,0,0-.433-1.1A1.419,1.419,0,0,0,49.975-13.892Z" transform="translate(-0.893 15.647)" fill="#fff"/>
</svg>
