<svg id="Layer_2" data-name="Layer 2" 
    xmlns="http://www.w3.org/2000/svg" viewBox="0 0 712.39 283.46" >
    <path d="M405.49,93.32l-16.8,46.9H376.86l-16.81-46.9v-.7h10.57L382.73,130h.21l12-37.38h10.57v.7Z" transform="translate(-8.87 -9.73)"/>
    <path d="M417.45,126.08c.35,4.76,3.43,7.63,8.48,7.63a31.42,31.42,0,0,0,10.78-2.1l2.17,6.79a32.66,32.66,0,0,1-13.65,2.87c-11.69,0-17.37-8.05-17.37-18,0-9.59,5.89-17.85,16.88-17.85s15.75,6.65,15.75,14.56a42.67,42.67,0,0,1-.49,6.09Zm14.36-5.88a5.3,5.3,0,0,0,.07-1c0-3.78-1.75-6.86-7.07-6.86-4.76,0-7.14,3.85-7.36,7.91Z" transform="translate(-8.87 -9.73)"/>
    <path d="M469.54,140.22v-20.3c0-4.27-1.89-6.72-6-6.72a10.31,10.31,0,0,0-7.29,3.22v23.8h-9.45v-49h9.45v18.06h.15a15.59,15.59,0,0,1,10.08-3.85c8.05,0,12.53,5.46,12.53,13.58v21.21Z" transform="translate(-8.87 -9.73)"/>
    <path d="M486.82,140.22V106.48h9.45v33.74Zm15.76-49.28-7.22,9.59H487.1v-.7l5.53-9.52h9.94v.63Z" transform="translate(-8.87 -9.73)"/>
    <path d="M520.64,105.43a32,32,0,0,1,10.5,2l-1.89,7.21a23.71,23.71,0,0,0-7.5-1.47c-5.11,0-9.38,2.8-9.38,10.15s4.13,10.15,9.38,10.15a23.71,23.71,0,0,0,7.5-1.47l1.89,7.21a32,32,0,0,1-10.5,2c-11.49,0-17.93-7-17.93-17.92S509.15,105.43,520.64,105.43Z" transform="translate(-8.87 -9.73)"/>
    <path d="M546.46,106.48v20.3c0,4.41,1.61,6.72,5.74,6.72a12,12,0,0,0,7.14-2.87V106.48h9.45v33.74h-7.63l-1.26-3.29h-.14a15.33,15.33,0,0,1-10.5,4.34c-8,0-12.25-5.39-12.25-13.51V106.48Z" transform="translate(-8.87 -9.73)"/>
    <path d="M586.29,91.22v41.44c0,1.05.07,1.26,1.12,1.26h3.71v6.45a33,33,0,0,1-5.6.49c-6.44,0-8.68-3.15-8.68-9.88V91.22Z" transform="translate(-8.87 -9.73)"/>
    <path d="M612.61,141.27c-11.55,0-17.78-8.12-17.78-17.92s6.23-17.92,17.78-17.92c11.77,0,17.85,8.12,17.85,17.92S624.38,141.27,612.61,141.27Zm0-7.77c5,0,8.19-3.36,8.19-10.15s-3.22-10.15-8.19-10.15-8.12,3.36-8.12,10.15S607.78,133.5,612.61,133.5Z" transform="translate(-8.87 -9.73)"/>
    <path d="M637.46,131.26a24.58,24.58,0,0,0,10.85,2.88c3.71,0,5.32-1.13,5.32-3.3S652,128,649,127.27l-4.41-1c-4.69-1.12-9.17-3.78-9.17-9.94,0-6.65,5.25-10.85,14-10.85a30.65,30.65,0,0,1,12.6,2.45l-2.59,6.72a28.76,28.76,0,0,0-9.73-2c-3.57,0-5.11,1.05-5.11,3.08s1.54,2.66,4.34,3.43l4.28,1c5.39,1.34,9.59,4.13,9.59,10.09,0,7-5.6,11.06-14.21,11.06a28.87,28.87,0,0,1-13.94-3.22Z" transform="translate(-8.87 -9.73)"/>
    <path d="M386,161.57a32.69,32.69,0,0,1,13.51,3.08l-2.59,7.7A25,25,0,0,0,386,169.9c-8.48,0-13,6.65-13,16.52s4.54,16.52,13,16.52A25,25,0,0,0,397,200.49l2.59,7.7A32.69,32.69,0,0,1,386,211.27c-15,0-23.18-10-23.18-24.85S371.05,161.57,386,161.57Z" transform="translate(-8.87 -9.73)"/>
    <path d="M419.62,211.27c-11.55,0-17.78-8.12-17.78-17.92s6.23-17.92,17.78-17.92c11.77,0,17.86,8.12,17.86,17.92S431.39,211.27,419.62,211.27Zm0-7.77c5,0,8.2-3.36,8.2-10.15s-3.22-10.15-8.2-10.15c-4.82,0-8.12,3.36-8.12,10.15S414.8,203.5,419.62,203.5Z" transform="translate(-8.87 -9.73)"/>
    <path d="M449.23,176.48l1.19,3.29h.21a15.87,15.87,0,0,1,10.86-4.34c5,0,8.26,1.89,10.29,5.18h.14c2.1-1.75,5.39-5.18,12.32-5.18,8.19,0,12.39,5.39,12.39,13.51v21.28h-9.45v-20.3c0-4.41-1.4-6.72-5.88-6.72-3.36,0-5.95,1.89-7.63,3.22a9.94,9.94,0,0,1,.28,2.52v21.28H464.5v-20.3c0-4.27-1.47-6.72-5.95-6.72a12.13,12.13,0,0,0-7.36,2.87v24.15h-9.45V176.48Z" transform="translate(-8.87 -9.73)"/>
    <path d="M510.13,196.08c.35,4.76,3.43,7.63,8.47,7.63a31.53,31.53,0,0,0,10.79-2.1l2.17,6.79a32.71,32.71,0,0,1-13.66,2.87c-11.69,0-17.36-8.05-17.36-18,0-9.59,5.88-17.85,16.87-17.85s15.76,6.65,15.76,14.56a42.67,42.67,0,0,1-.49,6.09Zm14.35-5.88a5.3,5.3,0,0,0,.07-1c0-3.78-1.75-6.86-7.07-6.86-4.76,0-7.14,3.85-7.35,7.91Z" transform="translate(-8.87 -9.73)"/>
    <path d="M545,176.48l1.33,4.06h.14a9.93,9.93,0,0,1,8.55-5.11,15.05,15.05,0,0,1,3.35.42l-.84,7.91a19.74,19.74,0,0,0-3.36-.28,9,9,0,0,0-7.35,3.29v23.45h-9.45V176.48Z" transform="translate(-8.87 -9.73)"/>
    <path d="M577.26,175.43a32,32,0,0,1,10.5,2l-1.89,7.21a23.64,23.64,0,0,0-7.49-1.47c-5.11,0-9.38,2.8-9.38,10.15s4.13,10.15,9.38,10.15a23.64,23.64,0,0,0,7.49-1.47l1.89,7.21a32,32,0,0,1-10.5,2c-11.48,0-17.92-7-17.92-17.92S565.78,175.43,577.26,175.43Z" transform="translate(-8.87 -9.73)"/>
    <path d="M596.65,160.24c3.36,0,5.53,2.17,5.53,5.18s-2.17,5.18-5.53,5.18-5.46-2.17-5.46-5.18S593.36,160.24,596.65,160.24Zm-4.76,50V176.48h9.45v33.74Z" transform="translate(-8.87 -9.73)"/>
    <path d="M635.71,202.88c0,1,.07,1.26,1.12,1.26h2.45v6.43a23.39,23.39,0,0,1-4.9.49c-3.64,0-5.53-1.4-6.72-4h-.14c-2.24,1.89-6.72,4.2-10.85,4.2-7.56,0-11.41-4.48-11.41-10.64,0-7.49,4.76-11.06,16.66-11.06h4.55V188c0-4.2-3.71-4.83-5.74-4.83a29,29,0,0,0-11.2,2.45l-2.24-7.21a35.31,35.31,0,0,1,13.93-3c9.73,0,14.49,5,14.49,13.65Zm-12.81-7.22c-6.23,0-8.61,1.61-8.61,4.14,0,2.79,1.61,4,4.48,4a14.9,14.9,0,0,0,7.7-2.3v-5.89Z" transform="translate(-8.87 -9.73)"/>
    <path d="M652,161.22v41.44c0,1.05.07,1.26,1.12,1.26h3.71v6.44a32,32,0,0,1-5.6.49c-6.44,0-8.68-3.15-8.68-9.87V161.22Z" transform="translate(-8.87 -9.73)"/>
    <path d="M668.05,196.08c.35,4.76,3.43,7.63,8.47,7.63a31.42,31.42,0,0,0,10.78-2.1l2.17,6.79a32.66,32.66,0,0,1-13.65,2.87c-11.69,0-17.36-8.05-17.36-18,0-9.59,5.88-17.85,16.87-17.85s15.75,6.65,15.75,14.56a42.67,42.67,0,0,1-.49,6.09Zm14.35-5.88a5.3,5.3,0,0,0,.07-1c0-3.78-1.75-6.86-7.07-6.86-4.76,0-7.14,3.85-7.35,7.91Z" transform="translate(-8.87 -9.73)"/>
    <path d="M695.91,201.26a24.57,24.57,0,0,0,10.85,2.87c3.71,0,5.32-1.12,5.32-3.29s-1.61-2.8-4.62-3.57l-4.41-1.05c-4.69-1.12-9.17-3.78-9.17-9.94,0-6.65,5.25-10.85,14-10.85a30.65,30.65,0,0,1,12.6,2.45l-2.59,6.72a28.76,28.76,0,0,0-9.73-2c-3.57,0-5.11,1.05-5.11,3.08s1.54,2.66,4.34,3.43l4.27,1c5.39,1.33,9.59,4.13,9.59,10.09,0,7-5.6,11.06-14.21,11.06a28.85,28.85,0,0,1-13.93-3.22Z" transform="translate(-8.87 -9.73)"/>
    <path d="M150.6,280.13c-70.47,0-128.27-58.2-128.27-128.67a125.74,125.74,0,0,1,8.11-44.93l75,151c1,2,2.17,3.56,4.55,3.56s3.68-1.61,4.55-3.56L149,180.17c.4-.79.8-1.59,1.59-1.59s1.19.8,1.58,1.59l34.44,77.4c.87,1.95,2.18,3.56,4.56,3.56s3.56-1.58,4.55-3.56l75-151a125.53,125.53,0,0,1,8.12,44.93c0,70.47-57.8,128.67-128.27,128.67m0-157.76c-.79,0-1.19-.8-1.59-1.59L108.63,30.12a124,124,0,0,1,83.94,0l-40.39,90.66c-.39.79-.79,1.59-1.58,1.59m-41,93c-.79,0-1.19-.79-1.58-1.58L42.72,82.18A132.62,132.62,0,0,1,88.84,38.83l46.91,104.52a3.31,3.31,0,0,0,3.57,2.38h22.56a3.33,3.33,0,0,0,3.57-2.38L212.36,38.83a132.71,132.71,0,0,1,46.12,43.35L193.16,213.82c-.4.79-.79,1.58-1.59,1.58s-1.18-.79-1.58-1.58L165.45,157.6a3.32,3.32,0,0,0-3.57-2.37H139.32a3.31,3.31,0,0,0-3.57,2.37l-24.54,56.22c-.4.79-.8,1.58-1.59,1.58m41,77.8A141.74,141.74,0,1,0,8.87,151.46,141.59,141.59,0,0,0,150.6,293.2" transform="translate(-8.87 -9.73)"/>
</svg>